<svg xmlns="http://www.w3.org/2000/svg" viewBox="0 0 400 300" width="400" height="300" role="img" aria-hidden="true">
<rect width="400" height="300" fill="#0D0F17"/>
<rect x="0" y="0" width="400" height="1" fill="#D6B36A"/>
<circle cx="200" cy="40" r="6" fill="#A78BFA"/><circle cx="180" cy="76" r="6" fill="#A78BFA"/><circle cx="220" cy="76" r="6" fill="#A78BFA"/><circle cx="160" cy="112" r="6" fill="#A78BFA"/><circle cx="200" cy="112" r="6" fill="#A78BFA"/><circle cx="240" cy="112" r="6" fill="#A78BFA"/><circle cx="140" cy="148" r="6" fill="#A78BFA"/><circle cx="180" cy="148" r="6" fill="#A78BFA"/><circle cx="220" cy="148" r="6" fill="#A78BFA"/><circle cx="260" cy="148" r="6" fill="#A78BFA"/><circle cx="120" cy="184" r="6" fill="#A78BFA"/><circle cx="160" cy="184" r="6" fill="#A78BFA"/><circle cx="200" cy="184" r="6" fill="#A78BFA"/><circle cx="240" cy="184" r="6" fill="#A78BFA"/><circle cx="280" cy="184" r="6" fill="#A78BFA"/><circle cx="100" cy="220" r="6" fill="#A78BFA"/><circle cx="140" cy="220" r="6" fill="#A78BFA"/><circle cx="180" cy="220" r="6" fill="#A78BFA"/><circle cx="220" cy="220" r="6" fill="#A78BFA"/><circle cx="260" cy="220" r="6" fill="#A78BFA"/><circle cx="300" cy="220" r="6" fill="#A78BFA"/><circle cx="80" cy="256" r="6" fill="#A6A8B3"/><circle cx="120" cy="256" r="6" fill="#A6A8B3"/><circle cx="160" cy="256" r="6" fill="#A6A8B3"/><circle cx="200" cy="256" r="6" fill="#A6A8B3"/><circle cx="240" cy="256" r="6" fill="#A6A8B3"/><circle cx="280" cy="256" r="6" fill="#A6A8B3"/><circle cx="320" cy="256" r="6" fill="#A6A8B3"/>
</svg>